<svg xmlns="http://www.w3.org/2000/svg" viewBox="0 0 200 200" width="100%" height="100%">
  <!-- Background circle -->
  <circle cx="100" cy="100" r="95" fill="#0ea5e9" />
  
  <!-- QR Code pattern - top left square -->
  <rect x="45" y="45" width="35" height="35" rx="4" fill="white" />
  <rect x="52" y="52" width="21" height="21" rx="2" fill="#0ea5e9" />
  <rect x="58" y="58" width="9" height="9" rx="1" fill="white" />
  
  <!-- QR Code pattern - top right square -->
  <rect x="120" y="45" width="35" height="35" rx="4" fill="white" />
  <rect x="127" y="52" width="21" height="21" rx="2" fill="#0ea5e9" />
  <rect x="133" y="58" width="9" height="9" rx="1" fill="white" />
  
  <!-- QR Code pattern - bottom left square -->
  <rect x="45" y="120" width="35" height="35" rx="4" fill="white" />
  <rect x="52" y="127" width="21" height="21" rx="2" fill="#0ea5e9" />
  <rect x="58" y="133" width="9" height="9" rx="1" fill="white" />
  
  <!-- Chat bubble - representing AI assistant -->
  <path d="M 95 95 L 155 95 Q 165 95 165 105 L 165 135 Q 165 145 155 145 L 120 145 L 105 155 L 110 145 L 95 145 Q 85 145 85 135 L 85 105 Q 85 95 95 95 Z" fill="white" />
  
  <!-- Chat lines inside bubble -->
  <rect x="100" y="105" width="50" height="6" rx="3" fill="#0ea5e9" />
  <rect x="100" y="117" width="35" height="6" rx="3" fill="#0ea5e9" />
  <rect x="100" y="129" width="42" height="6" rx="3" fill="#0ea5e9" />
</svg>
