<svg xmlns="http://www.w3.org/2000/svg" width="800.597" height="566.88" viewBox="0 0 800.597 566.88"><g transform="translate(-526.81 -263.328)"><path d="M501.444,232.117a4.94,4.94,0,0,0-2.033.885,6.952,6.952,0,0,0-1.651,1.734,8.749,8.749,0,0,0-1.113,2.334,9.164,9.164,0,0,0-.413,2.69V614.065a9.473,9.473,0,0,0,1.522,5.11A7.565,7.565,0,0,0,499.408,621a5.267,5.267,0,0,0,2.034,1l277.323,64.009a8.166,8.166,0,0,0,3.389.092,6.584,6.584,0,0,0,2.782-1.238,6.385,6.385,0,0,0,1.884-2.359,7.649,7.649,0,0,0,.694-3.261V191.186a7.917,7.917,0,0,0-.694-3.3,6.927,6.927,0,0,0-1.884-2.466,7.027,7.027,0,0,0-2.781-1.4,8.173,8.173,0,0,0-3.389-.1Z" transform="translate(307.983 79.54)" fill="#090814"/><path d="M507.591,240.989a5.076,5.076,0,0,0-2.07.92,7.058,7.058,0,0,0-1.672,1.772,8.805,8.805,0,0,0-1.11,2.373,9.189,9.189,0,0,0-.386,2.729V607.174a9.525,9.525,0,0,0,1.5,5.192,7.712,7.712,0,0,0,1.672,1.873,5.437,5.437,0,0,0,2.07,1.044L767.1,673.154a7.926,7.926,0,0,0,3.342,0,6.427,6.427,0,0,0,4.54-3.727,7.821,7.821,0,0,0,.635-3.285v-459.9a8.092,8.092,0,0,0-.635-3.323,6.983,6.983,0,0,0-4.54-4,7.969,7.969,0,0,0-3.342-.2Z" transform="translate(308.24 80.163)" fill="#fff"/><path d="M539.279,286.895a2.3,2.3,0,0,0-.981.354,3.019,3.019,0,0,0-.8.758,3.725,3.725,0,0,0-.539,1.053,3.983,3.983,0,0,0-.2,1.238v14.348a3.632,3.632,0,0,0,.2,1.2,2.916,2.916,0,0,0,.538.943,2.265,2.265,0,0,0,.8.6,1.994,1.994,0,0,0,.981.16l174.8-15.421a3.53,3.53,0,0,0,1.355-.413,3.967,3.967,0,0,0,1.109-.888,4.189,4.189,0,0,0,.75-1.238,4.056,4.056,0,0,0,.278-1.456V271.187a3.63,3.63,0,0,0-.276-1.4,3.211,3.211,0,0,0-.75-1.092,3.017,3.017,0,0,0-1.109-.67,3.152,3.152,0,0,0-1.358-.146Z" transform="translate(309.684 83.068)" fill="#0f766e"/><path d="M538.3,332.315a.549.549,0,0,0-.248.077.7.7,0,0,0-.2.18.882.882,0,0,0-.135.257.976.976,0,0,0-.05.307v5.607a.923.923,0,0,0,.049.3.764.764,0,0,0,.135.241.594.594,0,0,0,.2.157.506.506,0,0,0,.248.049l177.921-9.644a.863.863,0,0,0,.34-.091.945.945,0,0,0,.277-.213,1,1,0,0,0,.256-.666v-6.61a.932.932,0,0,0-.069-.355.855.855,0,0,0-.187-.281.8.8,0,0,0-.618-.233Z" transform="translate(309.722 85.315)" fill="#ccc"/><path d="M538.3,349.685a.541.541,0,0,0-.248.073.685.685,0,0,0-.2.177.863.863,0,0,0-.135.254.967.967,0,0,0-.049.306V356.1a.932.932,0,0,0,.049.3.779.779,0,0,0,.135.248.611.611,0,0,0,.2.16.513.513,0,0,0,.248.053l177.921-6.411a.852.852,0,0,0,.34-.083.92.92,0,0,0,.277-.208.981.981,0,0,0,.256-.66V342.89a.942.942,0,0,0-.069-.356.876.876,0,0,0-.187-.285.825.825,0,0,0-.277-.186.813.813,0,0,0-.34-.058Z" transform="translate(309.722 86.18)" fill="#ccc"/><path d="M538.3,367.057a.534.534,0,0,0-.248.068.67.67,0,0,0-.2.173.843.843,0,0,0-.135.252.957.957,0,0,0-.049.305v5.607a.94.94,0,0,0,.05.3.8.8,0,0,0,.134.248.628.628,0,0,0,.2.165.518.518,0,0,0,.248.058l177.918-3.171a.841.841,0,0,0,.34-.083.9.9,0,0,0,.277-.2.951.951,0,0,0,.187-.3.974.974,0,0,0,.068-.36v-6.608a.949.949,0,0,0-.068-.357.9.9,0,0,0-.187-.288.846.846,0,0,0-.277-.195.82.82,0,0,0-.34-.061Z" transform="translate(309.722 87.044)" fill="#ccc"/><g transform="translate(1121.847 406.71)"><path d="M671.114,263.4h74.855v-1.062H672.176V212.961h-1.062Z" transform="translate(-654.549 -153.968)" fill="#090814"/><path d="M354.176,302.4h-1.062V251.961h74.855v1.062H354.176Z" transform="translate(-322.414 -97.359)" fill="#090814"/><path d="M494.969,90.4H420.114V39.961h1.062V89.333h73.793Z" transform="translate(-364.264 -18.746)" fill="#090814"/><path d="M569.059,154.52a1.516,1.516,0,0,0,0,3.032h30.748a1.516,1.516,0,1,0,0-3.032Z" transform="translate(-528.104 -154.52)" fill="#3f3d56"/><path d="M569.059,171.342a1.516,1.516,0,0,0,0,3.032h30.748a1.516,1.516,0,1,0,0-3.032Z" transform="translate(-528.104 -162.411)" fill="#3f3d56"/><path d="M959.539,352.015a1.516,1.516,0,0,1,0-3.032H990.29a1.516,1.516,0,1,1,0,3.032Z" transform="translate(-958.023 -299.81)" fill="#2f2e41"/><path d="M959.539,335.191a1.516,1.516,0,0,1,0-3.032H990.29a1.516,1.516,0,1,1,0,3.032Z" transform="translate(-958.023 -291.918)" fill="#2f2e41"/><path d="M723.26,390.09a56.8,56.8,0,1,1,56.8-56.8A56.8,56.8,0,0,1,723.26,390.09Zm0-112.548A55.743,55.743,0,1,0,779,333.285,55.743,55.743,0,0,0,723.26,277.542Z" transform="translate(-574.505 -211.733)" fill="#090814"/><ellipse cx="6.371" cy="6.371" rx="6.371" ry="6.371" transform="translate(119.556 65.278)" fill="#0f766e"/><ellipse cx="6.371" cy="6.371" rx="6.371" ry="6.371" transform="translate(97.592 149.293)" fill="#0f766e"/><ellipse cx="6.371" cy="6.371" rx="6.371" ry="6.371" transform="translate(87.172 103.056)" fill="#0f766e"/><path d="M501.769,514.267a1.516,1.516,0,1,0,0,3.031H532.52a1.516,1.516,0,1,0,0-3.031Z" transform="translate(-486.118 -302.443)" fill="#2f2e41"/><path d="M501.769,531.091a1.516,1.516,0,1,0,0,3.032H532.52a1.516,1.516,0,1,0,0-3.031Z" transform="translate(-486.118 -310.335)" fill="#2f2e41"/></g><g transform="translate(526.81 479.266)"><g transform="translate(0 0)"><path d="M181.935.683,0,.247v-1l181.935.436Z" transform="translate(0 350.259)" fill="#d6d6e3"/></g></g></g></svg>